<?xml version="1.0" encoding="UTF-8" standalone="no"?>
<!-- Created with Inkscape (http://www.inkscape.org/) -->

<svg
   xmlns:dc="http://purl.org/dc/elements/1.1/"
   xmlns:cc="http://creativecommons.org/ns#"
   xmlns:rdf="http://www.w3.org/1999/02/22-rdf-syntax-ns#"
   xmlns:svg="http://www.w3.org/2000/svg"
   xmlns="http://www.w3.org/2000/svg"
   xmlns:sodipodi="http://sodipodi.sourceforge.net/DTD/sodipodi-0.dtd"
   xmlns:inkscape="http://www.inkscape.org/namespaces/inkscape"
   width="1950px"
   height="1950px"
   id="svg3003"
   version="1.1"
   inkscape:version="0.48.4 r9939"
   sodipodi:docname="logo.svg"
   inkscape:export-filename="C:\Users\dragos.cionca\Desktop\test1.png"
   inkscape:export-xdpi="44.067745"
   inkscape:export-ydpi="44.067745">
  <defs
     id="defs3005" />
  <sodipodi:namedview
     id="base"
     pagecolor="#ffffff"
     bordercolor="#666666"
     borderopacity="1.0"
     inkscape:pageopacity="0.0"
     inkscape:pageshadow="2"
     inkscape:zoom="0.3"
     inkscape:cx="999.39394"
     inkscape:cy="1186.1947"
     inkscape:document-units="px"
     inkscape:current-layer="layer1"
     showgrid="false"
     inkscape:window-width="1280"
     inkscape:window-height="1002"
     inkscape:window-x="1272"
     inkscape:window-y="-8"
     inkscape:window-maximized="1" />
  <metadata
     id="metadata3008">
    <rdf:RDF>
      <cc:Work
         rdf:about="">
        <dc:format>image/svg+xml</dc:format>
        <dc:type
           rdf:resource="http://purl.org/dc/dcmitype/StillImage" />
        <dc:title />
      </cc:Work>
    </rdf:RDF>
  </metadata>
  <g
     id="layer1"
     inkscape:label="Layer 1"
     inkscape:groupmode="layer"
     style="display:inline">
    <rect
       style="fill:#0000ff;fill-rule:evenodd;stroke:#000000;stroke-width:1px;stroke-linecap:butt;stroke-linejoin:miter;stroke-opacity:1"
       id="rect3017"
       width="1930"
       height="1076.6666"
       x="14.000001"
       y="490" />
    <path
       style="fill:#a0a0a0;stroke:none"
       d="M 17.333334,1028.6667 17.333334,492 979,492 l 961.6667,0 0,536.6667 0,536.6667 -961.6667,0 -961.666666,0 0,-536.6667 z"
       id="path3019"
       inkscape:connector-curvature="0" />
    <path
       style="fill:#a0a0a0;stroke:none"
       d="M 17.333334,1028.6667 17.333334,492 979,492 l 961.6667,0 0,536.6667 0,536.6667 -961.6667,0 -961.666666,0 0,-536.6667 z"
       id="path3021"
       inkscape:connector-curvature="0" />
    <path
       style="fill:#a0a0a0;stroke:none"
       d="M 17.333334,1028.6667 17.333334,492 979,492 l 961.6667,0 0,536.6667 0,536.6667 -961.6667,0 -961.666666,0 0,-536.6667 z"
       id="path3023"
       inkscape:connector-curvature="0" />
    <path
       style="fill:#a0a0a0;stroke:none"
       d="M 17.333334,1028.6667 17.333334,492 979,492 l 961.6667,0 0,536.6667 0,536.6667 -961.6667,0 -961.666666,0 0,-536.6667 z"
       id="path3025"
       inkscape:connector-curvature="0" />
    <path
       style="fill:#a0a0a0;stroke:none"
       d="M 17.333334,1028.6667 17.333334,492 979,492 l 961.6667,0 0,536.6667 0,536.6667 -961.6667,0 -961.666666,0 0,-536.6667 z"
       id="path3027"
       inkscape:connector-curvature="0" />
    <path
       style="fill:#a0a0a0;stroke:none"
       d="M 17.333334,1028.6667 17.333334,492 979,492 l 961.6667,0 0,536.6667 0,536.6667 -961.6667,0 -961.666666,0 0,-536.6667 z"
       id="path3029"
       inkscape:connector-curvature="0" />
    <path
       style="fill:#a0a0a0;stroke:none"
       d="M 17.333334,1028.6667 17.333334,492 979,492 l 961.6667,0 0,536.6667 0,536.6667 -961.6667,0 -961.666666,0 0,-536.6667 z"
       id="path3031"
       inkscape:connector-curvature="0" />
    <path
       style="fill:#a0a0a0;stroke:none"
       d="M 17.333334,1028.6667 17.333334,492 979,492 l 961.6667,0 0,536.6667 0,536.6667 -961.6667,0 -961.666666,0 0,-536.6667 z"
       id="path3033"
       inkscape:connector-curvature="0" />
    <path
       style="fill:#a0a0a0;stroke:none"
       d="M 17.333334,1028.6667 17.333334,492 979,492 l 961.6667,0 0,536.6667 0,536.6667 -961.6667,0 -961.666666,0 0,-536.6667 z"
       id="path3035"
       inkscape:connector-curvature="0" />
    <path
       style="fill:#a0a0a0;stroke:none"
       d="M 17.333334,1028.6667 17.333334,492 979,492 l 961.6667,0 0,536.6667 0,536.6667 -961.6667,0 -961.666666,0 0,-536.6667 z"
       id="path3037"
       inkscape:connector-curvature="0" />
    <path
       style="fill:#a0a0a0;stroke:none"
       d="M 17.333334,1028.6667 17.333334,492 979,492 l 961.6667,0 0,536.6667 0,536.6667 -961.6667,0 -961.666666,0 0,-536.6667 z"
       id="path3039"
       inkscape:connector-curvature="0" />
    <path
       style="fill:#a0a0a0;stroke:none"
       d="M 17.333334,1028.6667 17.333334,492 979,492 l 961.6667,0 0,536.6667 0,536.6667 -961.6667,0 -961.666666,0 0,-536.6667 z"
       id="path3041"
       inkscape:connector-curvature="0" />
    <path
       style="fill:#a0a0a0;stroke:none"
       d="M 17.333334,1028.6667 17.333334,492 979,492 l 961.6667,0 0,536.6667 0,536.6667 -961.6667,0 -961.666666,0 0,-536.6667 z"
       id="path3043"
       inkscape:connector-curvature="0" />
    <path
       style="fill:#a0a0a0;stroke:none"
       d="M 17.333334,1028.6667 17.333334,492 979,492 l 961.6667,0 0,536.6667 0,536.6667 -961.6667,0 -961.666666,0 0,-536.6667 z"
       id="path3045"
       inkscape:connector-curvature="0" />
    <path
       style="fill:#611794;fill-opacity:1;stroke:none"
       d="m 3.3333327,985.33335 0,-979.9999166 980.0000673,0 980,0 0,979.9999166 0,980.00015 -980,0 -980.0000673,0 0,-980.00015 z"
       id="path3047"
       inkscape:connector-curvature="0" />
    <flowRoot
       xml:space="preserve"
       id="flowRoot3049"
       style="font-size:40px;font-style:normal;font-variant:normal;font-weight:normal;font-stretch:normal;line-height:125%;letter-spacing:0px;word-spacing:0px;fill:#ffff00;fill-opacity:1;stroke:none;font-family:Showcard Gothic;-inkscape-font-specification:Showcard Gothic"
       transform="translate(410.66667,623.33334)"><flowRegion
         id="flowRegion3051"><rect
           id="rect3053"
           width="476.66663"
           height="533.33337"
           x="333.33334"
           y="133.33333"
           style="fill:#ffff00;fill-opacity:1" /></flowRegion><flowPara
         style="font-size:144px;fill:#ffff00;fill-opacity:1"
         id="flowPara3059" /></flowRoot>    <flowRoot
       xml:space="preserve"
       id="flowRoot3842"
       style="font-size:40px;font-style:normal;font-variant:normal;font-weight:normal;font-stretch:normal;line-height:125%;letter-spacing:0px;word-spacing:0px;fill:#000000;fill-opacity:1;stroke:none;font-family:Showcard Gothic;-inkscape-font-specification:Showcard Gothic"
       transform="translate(20.666667,493.33334)"><flowRegion
         id="flowRegion3844"><rect
           id="rect3846"
           width="340"
           height="276.66666"
           x="406.66666"
           y="316.66666" /></flowRegion><flowPara
         id="flowPara3848" /></flowRoot>    <flowRoot
       xml:space="preserve"
       id="flowRoot3850"
       style="font-size:40px;font-style:normal;font-variant:normal;font-weight:normal;font-stretch:normal;line-height:125%;letter-spacing:0px;word-spacing:0px;fill:#000000;fill-opacity:1;stroke:none;font-family:Showcard Gothic;-inkscape-font-specification:Showcard Gothic"
       transform="translate(20.666667,493.33334)"><flowRegion
         id="flowRegion3852"><rect
           id="rect3854"
           width="903.33331"
           height="430"
           x="356.66666"
           y="266.66666" /></flowRegion><flowPara
         id="flowPara3856" /></flowRoot>    <flowRoot
       xml:space="preserve"
       id="flowRoot3874"
       style="font-size:40px;font-style:normal;font-variant:normal;font-weight:normal;font-stretch:normal;line-height:125%;letter-spacing:0px;word-spacing:0px;fill:#000000;fill-opacity:1;stroke:none;font-family:Showcard Gothic;-inkscape-font-specification:Showcard Gothic"
       transform="translate(20.666667,493.33334)"><flowRegion
         id="flowRegion3876"><rect
           id="rect3878"
           width="376.66666"
           height="43.333332"
           x="746.66669"
           y="320" /></flowRegion><flowPara
         id="flowPara3880" /></flowRoot>    <text
       xml:space="preserve"
       style="font-size:131.7096405px;font-style:normal;font-variant:normal;font-weight:normal;font-stretch:normal;text-align:start;line-height:90.00000954%;letter-spacing:0px;word-spacing:0px;text-anchor:start;fill:#000000;fill-opacity:1;stroke:none;font-family:Showcard Gothic;-inkscape-font-specification:Showcard Gothic"
       x="-522.07959"
       y="772.58685"
       id="text4377"
       sodipodi:linespacing="90.00001%"
       transform="scale(1.0057277,0.99430491)"><tspan
         sodipodi:role="line"
         x="311.39581"
         y="772.58685"
         id="tspan4379"><tspan
           x="311.39581"
           y="772.58685"
           style="font-size:474.15472412px;text-align:start;text-anchor:start;fill:#000000"
           id="tspan4381">Memo</tspan><tspan
           dx="0"
           x="1689.4084"
           y="772.58685"
           style="font-size:474.15472412px;text-align:start;text-anchor:start;fill:#000000"
           id="tspan4383" /></tspan><tspan
         sodipodi:role="line"
         x="419.28461"
         y="1199.3267"
         id="tspan4385"><tspan
           x="419.28461"
           y="1199.3267"
           style="font-size:474.15472412px;text-align:start;text-anchor:start;fill:#000000"
           id="tspan4387">Apps</tspan><tspan
           dx="0"
           x="1581.5195"
           y="1199.3267"
           style="font-size:474.15472412px;text-align:start;text-anchor:start;fill:#000000"
           id="tspan4389" /></tspan><tspan
         sodipodi:role="line"
         x="246.10692"
         y="1626.0658"
         id="tspan4391"><tspan
           x="246.10692"
           y="1626.0658"
           style="font-size:474.15472412px;text-align:start;text-anchor:start;fill:#000000"
           id="tspan4393">Games</tspan></tspan></text>
  </g>
  <g
     inkscape:groupmode="layer"
     id="layer2"
     inkscape:label="Layer"
     style="display:inline">
    <text
       xml:space="preserve"
       style="font-size:131.77563477px;font-style:normal;font-variant:normal;font-weight:normal;font-stretch:normal;text-align:start;line-height:90.00000954%;letter-spacing:0px;word-spacing:0px;text-anchor:start;fill:#ffffff;fill-opacity:1;stroke:none;font-family:Showcard Gothic;-inkscape-font-specification:Showcard Gothic"
       x="-461.48676"
       y="744.30109"
       id="text4404"
       sodipodi:linespacing="90.00001%"
       transform="scale(1.0057277,0.99430491)"><tspan
         sodipodi:role="line"
         x="285.18756"
         y="744.30109"
         id="tspan4406"><tspan
           x="285.18756"
           y="744.30109"
           style="font-size:474.39370728px;text-align:start;text-anchor:start;fill:#ffffff;fill-opacity:1"
           id="tspan4408">Memo</tspan><tspan
           dx="0"
           x="1663.9105"
           y="744.30109"
           style="font-size:474.39370728px;text-align:start;text-anchor:start;fill:#ffffff;fill-opacity:1"
           id="tspan4410" /></tspan><tspan
         sodipodi:role="line"
         x="393.1347"
         y="1171.2352"
         id="tspan4412"><tspan
           x="393.1347"
           y="1171.2352"
           style="font-size:474.39370728px;text-align:start;text-anchor:start;fill:#ffffff;fill-opacity:1"
           id="tspan4414">Apps</tspan><tspan
           dx="0"
           x="1555.9637"
           y="1171.2352"
           style="font-size:474.39370728px;text-align:start;text-anchor:start;fill:#ffffff;fill-opacity:1"
           id="tspan4416" /></tspan><tspan
         sodipodi:role="line"
         x="219.87517"
         y="1598.2125"
         id="tspan4418"><tspan
           x="219.87517"
           y="1598.2125"
           style="font-size:474.39370728px;text-align:start;text-anchor:start;fill:#ffffff;fill-opacity:1"
           id="tspan4420">Games</tspan></tspan></text>
  </g>
</svg>
